# xmcd CD database file
#
# Track frame offsets:
#	150
#	16139
#	31044
#	56351
#	75602
#	93223
#	113340
#	129848
#	149417
#	173879
#	190981
#	215907
#	235904
#	255869
#	273574
#	293428
#
# Disc length: 4132 seconds
#
# Revision: 0
# Processed by: cddbd v1.4PL0 Copyright (c) Steve Scherf et al.
# Submitted via: CDex 1.50beta10a
#
DISCID=cb102210
DTITLE=Various Artist - La Noche Cubana 17
DYEAR=2003
DGENRE=Salsa
TTITLE0=Bobby Rosario/La injusticia y la maldad
TTITLE1=The Big Band/Rebelion
TTITLE2=Conjunto Colores/Cancion a mi planeta
TTITLE3=Grupo Gale/Sigue Queriendome asi
TTITLE4=Bobby Rivas/Miedoso Baboso
TTITLE5=Borry Rosario/Que Felicidad
TTITLE6=Mamborama/Moros y cristianos
TTITLE7=Aguarroja Salsa Show/Dama de la noche
TTITLE8=Jumme Le M y La Clave de Londres/Descarga Dos Mil
TTITLE9=Havana Mambo/Personalidad
TTITLE10=Los Conquistadores de la salsa/Amiga Mia
TTITLE11=Orquesta La Sabrosura/Historia de un amor
TTITLE12=La Fiesta del Chelito/Pesares
TTITLE13=Joe Arroyo/El Labriego
TTITLE14=Orquesta La Sabrosura/Recuerdos
TTITLE15=Orquesta Los Tupamaros/Echate Pa Ca
EXTD=YEAR: 2003
EXTT0=
EXTT1=
EXTT2=
EXTT3=
EXTT4=
EXTT5=
EXTT6=
EXTT7=
EXTT8=
EXTT9=
EXTT10=
EXTT11=
EXTT12=
EXTT13=
EXTT14=
EXTT15=
PLAYORDER=
